<svg xmlns="http://www.w3.org/2000/svg" width="1024" height="512" viewBox="0 0 1024 512" version="1.1">
	<path d="M 465.447 34.403 C 454.861 37.719, 441 47.629, 441 51.881 C 441 53.132, 443.908 57.055, 448.127 61.497 C 456.273 70.072, 457.386 70.382, 465.788 66.407 C 478.281 60.497, 493.327 60.892, 506.658 67.481 C 511.853 70.048, 516.728 73.683, 523.192 79.811 C 533.564 89.641, 550.996 111.050, 555.500 119.489 C 560.485 128.829, 567.232 128.160, 471.380 127.827 C 402.658 127.589, 387.978 127.773, 386.630 128.892 C 384.572 130.600, 384.262 145.149, 386.250 146.782 C 386.972 147.376, 400.795 148.314, 419 149.005 C 436.325 149.662, 451.253 150.603, 452.174 151.095 C 454.175 152.164, 460.095 161.706, 462.664 168 C 464.204 171.775, 464.500 175.321, 464.500 190 C 464.500 206.547, 464.366 207.772, 462.049 212.500 C 458.898 218.928, 448.885 228.955, 442.609 231.967 C 439.919 233.259, 435.724 234.357, 433.288 234.407 C 429.457 234.487, 428.495 234.062, 426.179 231.263 C 421.411 225.503, 417.093 223, 411.923 223 C 407.745 223, 406.771 223.462, 402.964 227.250 C 394.123 236.046, 393.261 242.714, 399.388 254.903 C 417.583 291.101, 449.830 328.619, 479.038 347.573 C 503.008 363.128, 524.573 370.717, 547.726 371.746 C 558.499 372.224, 560.027 372.092, 560.588 370.632 C 561.565 368.084, 559.404 366.296, 553.700 364.932 C 541.333 361.975, 526.485 354.942, 511.867 345.118 C 489.137 329.843, 465.960 305.923, 448.288 279.500 C 440.911 268.470, 438.856 264.538, 439.540 262.756 C 439.829 262.002, 443.958 259.633, 448.715 257.490 C 453.472 255.348, 460.671 251.436, 464.713 248.797 C 468.755 246.159, 472.811 244, 473.727 244 C 474.643 244, 479.372 246.055, 484.235 248.567 C 498.879 256.130, 516.150 261, 528.330 261 C 535.277 261, 551.787 257.869, 558.045 255.365 C 565.334 252.449, 565 250.739, 565 291.018 C 565 330.350, 565.055 330.767, 570.775 334.840 C 574.572 337.544, 585.742 341.217, 587.994 340.502 C 588.996 340.184, 590.049 339.314, 590.335 338.568 C 590.621 337.823, 591.125 300.378, 591.455 255.356 C 592.104 166.648, 592.473 154.105, 594.509 151.316 C 595.674 149.719, 597.923 149.440, 613.167 149 L 630.500 148.500 630.790 139.084 C 631.001 132.224, 630.729 129.445, 629.790 128.849 C 629.080 128.399, 620.747 128.024, 611.270 128.015 C 582.618 127.990, 583.125 128.371, 550 81.886 C 537.960 64.990, 517.409 43.898, 508.500 39.292 C 498.877 34.318, 492.928 32.992, 480.568 33.067 C 474.481 33.104, 467.676 33.705, 465.447 34.403 M 244.471 42.420 C 219.939 51.869, 204.586 65.520, 177.203 102.226 C 160.307 124.874, 153.171 132.369, 144.748 136.315 C 136.939 139.973, 133.793 140.372, 127.411 138.517 C 119.974 136.355, 113.236 130.083, 109.380 121.734 C 106.592 115.699, 106.500 114.997, 106.500 99.714 C 106.500 83.373, 106.175 82.060, 102.117 82.015 C 98.295 81.973, 59.807 104.900, 57.259 108.736 C 56.168 110.380, 56.443 111.329, 59.241 115.572 C 63.475 121.994, 73.329 131.686, 81.222 137.192 C 84.675 139.600, 87.500 142.195, 87.500 142.957 C 87.500 143.731, 83.853 145.962, 79.245 148.007 C 62.933 155.245, 51.451 165.078, 46.018 176.462 C 43.275 182.210, 43 183.709, 43 192.926 C 43 201.884, 43.305 203.669, 45.620 208.237 C 51.417 219.676, 65.857 229.484, 83.519 233.979 C 93.874 236.614, 120.385 239.659, 140 240.466 C 183.009 242.236, 208.215 251.476, 216.560 268.534 C 223.800 283.331, 213.964 303.026, 194.591 312.525 C 181.621 318.884, 174.730 320.002, 148.590 319.987 C 122.250 319.972, 113.287 318.669, 98.757 312.745 C 87.768 308.265, 80.543 303.405, 73.191 295.545 C 65.897 287.747, 64 282.749, 64 271.322 C 64 264.333, 63.680 262.680, 62 261 C 59.445 258.445, 58.943 258.477, 52.586 261.589 C 44.684 265.459, 37.903 270.955, 34.160 276.525 C 30.925 281.339, 30.830 281.765, 31.160 289.998 C 31.430 296.757, 32.054 299.628, 34.203 304 C 44.046 324.031, 72.735 340.504, 108.500 346.661 C 122.301 349.037, 157.766 349.047, 174.581 346.679 C 209.486 341.764, 236.737 326.459, 249.811 304.427 C 255.724 294.461, 257.286 287.334, 256.789 272.591 C 256.411 261.409, 256.138 260.006, 253.149 253.927 C 248.952 245.392, 245.112 240.829, 238.154 236.108 C 225.952 227.829, 211.022 221.814, 193.500 218.119 C 180.639 215.406, 177.211 215.073, 151 213.994 C 113.967 212.470, 101.190 209.687, 91.661 201.068 C 90.099 199.656, 88.187 197.285, 87.411 195.800 C 85.593 192.319, 85.596 183.670, 87.418 180.200 C 91.453 172.513, 103.518 165.269, 117.094 162.383 C 128.088 160.045, 164.156 160.984, 175.810 163.911 C 192.350 168.066, 205.872 176.948, 211.021 187.041 C 215.028 194.896, 218.219 195.194, 230.171 188.833 C 238.936 184.168, 244.388 178.842, 243.490 175.820 C 240.491 165.714, 215.195 149.265, 192.487 142.652 C 184.491 140.324, 181.500 139.023, 181.500 137.873 C 181.500 137.004, 184.881 133.606, 189.014 130.322 C 193.147 127.038, 200.525 120.866, 205.409 116.607 C 228.714 96.288, 251.915 79.972, 271 70.480 C 285.978 63.031, 286.394 62.663, 284.338 58.687 C 281.625 53.440, 272.735 44.824, 267.500 42.366 C 260.872 39.256, 252.637 39.275, 244.471 42.420 M 838.237 87.491 C 832.411 90.447, 816.048 96.182, 809.750 97.474 C 807.939 97.845, 807 98.673, 807 99.897 C 807 102.557, 808.808 103.635, 814.500 104.368 C 820.594 105.152, 824.112 107.581, 825.694 112.094 C 826.515 114.438, 826.905 125.250, 826.944 146.781 C 826.991 172.811, 826.763 178.154, 825.590 178.604 C 824.815 178.901, 820.428 177.353, 815.840 175.163 C 805.444 170.199, 795.713 168, 784.141 168 C 762.066 168, 744.334 174.981, 729.534 189.500 C 718.275 200.545, 711.615 211.343, 706.405 227 C 703.660 235.248, 703.576 236.122, 703.574 256.500 C 703.572 276.434, 703.702 277.889, 706.153 285.167 C 710.383 297.728, 715.380 305.517, 725.935 316.002 C 741.981 331.943, 751.082 336.041, 772 336.746 C 792.228 337.428, 799.459 335.358, 815.218 324.378 C 819.463 321.420, 823.380 319, 823.923 319 C 824.864 319, 825.240 320.572, 826.411 329.419 C 826.696 331.575, 827.508 333.705, 828.215 334.154 C 830.423 335.555, 837.525 335.080, 844.145 333.088 C 847.640 332.036, 852.969 330.668, 855.987 330.048 C 867.318 327.718, 869.283 323.171, 860.388 319.864 C 850.548 316.205, 851.570 329.169, 850.982 200.646 C 850.697 138.416, 850.086 86.713, 849.625 85.750 C 848.466 83.331, 845.557 83.776, 838.237 87.491 M 480.446 151.087 C 480.069 151.697, 481.603 156.089, 483.854 160.848 C 490.093 174.038, 491.254 179.896, 490.796 195.887 C 490.427 208.766, 490.203 210.029, 486.636 219.317 C 483.748 226.838, 483.131 229.453, 483.997 230.497 C 484.620 231.246, 487.912 232.862, 491.314 234.088 C 496.586 235.986, 500.131 236.380, 515.313 236.756 C 532.475 237.180, 533.443 237.098, 541.813 234.502 C 551.942 231.360, 560.973 226.213, 564.522 221.561 L 567.027 218.276 566.763 184.388 L 566.500 150.500 523.816 150.239 C 493.399 150.054, 480.934 150.297, 480.446 151.087 M 932 170.583 C 919.975 172.702, 916.821 173.559, 911.072 176.271 C 897.614 182.621, 880.052 204.530, 882.593 211.801 C 883.296 213.812, 884.296 214.566, 886.518 214.761 C 890.279 215.089, 890.334 215.043, 897.297 205.826 C 906.136 194.128, 915.851 185.419, 922.149 183.548 C 928.340 181.710, 939.275 181.537, 945.779 183.175 C 951.547 184.627, 958.952 191.674, 960.831 197.500 C 962.386 202.319, 963.541 221.301, 962.589 226.378 C 961.760 230.794, 960.280 231.616, 934.500 241.973 C 908.625 252.369, 898.464 257.822, 889.677 266.028 C 881.124 274.016, 876.684 281.557, 874.930 291.078 C 872.581 303.825, 877.581 318.841, 886.991 327.302 C 893.240 332.920, 897.300 334.828, 907.121 336.763 C 914.343 338.186, 915.701 338.175, 923.588 336.625 C 934.345 334.512, 942.082 330.666, 953.250 321.882 C 958.062 318.097, 962.401 315, 962.893 315 C 964.070 315, 965 317.535, 965 320.744 C 965 324.220, 969.318 331.378, 972.994 333.996 C 974.637 335.166, 977.450 336.361, 979.245 336.652 C 985.311 337.637, 1002.412 331.823, 1005.935 327.578 C 1007.595 325.578, 1005.769 323, 1002.693 323 C 998.757 323, 992.243 319.035, 990.709 315.706 C 989.502 313.084, 989.107 303.420, 988.543 262.694 C 987.798 208.876, 987.246 199.428, 984.514 193.672 C 980.158 184.491, 969.416 175.922, 958.101 172.603 C 952.660 171.007, 936.633 169.766, 932 170.583 M 769 179.603 C 761.301 181.663, 753.759 186.474, 747.149 193.540 C 740.780 200.350, 737.094 206.641, 733.265 217.236 C 730.790 224.086, 730.617 225.775, 730.235 246.885 C 729.965 261.826, 730.215 270.804, 730.988 273.885 C 735.457 291.698, 746.819 308.799, 758.566 315.393 C 774.530 324.353, 790.411 325.220, 806.688 318.020 C 813.398 315.052, 821.561 306.717, 824.210 300.131 C 826.417 294.641, 826.482 293.441, 826.797 252.093 L 827.120 209.686 823.936 203.219 C 820.220 195.671, 811.491 186.507, 804.961 183.300 C 794.387 178.107, 780.086 176.637, 769 179.603 M 942.875 248.882 C 934.282 252.662, 924.563 257.581, 921.277 259.812 C 904.338 271.315, 896.119 289.438, 901.907 302.523 C 904.961 309.427, 908.382 313.554, 913.574 316.596 C 926.059 323.913, 945.377 318.385, 958.560 303.723 L 963.031 298.750 962.765 270.625 C 962.508 243.349, 962.440 242.493, 960.500 242.254 C 959.400 242.119, 951.469 245.101, 942.875 248.882 M 177.343 416.550 C 177.015 417.402, 177.305 420.724, 177.986 423.932 C 179.076 429.070, 178.987 442.716, 177.780 455.461 C 177.548 457.917, 177.978 458.593, 180.303 459.423 C 184.338 460.863, 186.397 459.188, 187 453.976 C 187.275 451.600, 188.005 449.489, 188.623 449.287 C 189.240 449.084, 191.625 451.163, 193.923 453.908 C 198.554 459.440, 200.924 460.646, 203.962 459.020 C 207.147 457.316, 206.407 454.637, 201.009 448.331 C 198.264 445.124, 196.014 441.937, 196.009 441.249 C 196.004 440.561, 197.836 438.216, 200.081 436.038 C 205.085 431.181, 205.062 428.500, 200.018 428.500 C 197.042 428.500, 196.260 429.041, 194.370 432.411 C 191.751 437.080, 189.161 438.863, 187.896 436.866 C 187.420 436.115, 187.024 431.599, 187.015 426.832 C 187.007 422.064, 186.727 417.452, 186.393 416.582 C 185.562 414.415, 178.172 414.389, 177.343 416.550 M 280.933 415.690 C 280.896 416.135, 280.783 425.832, 280.683 437.239 C 280.488 459.380, 280.403 459, 285.510 459 C 289.013 459, 291.297 456.258, 290.419 453.106 C 290.020 451.673, 289.425 442.625, 289.097 433 L 288.500 415.500 284.750 415.190 C 282.688 415.019, 280.970 415.244, 280.933 415.690 M 599.909 416.193 C 599.859 416.912, 599.792 426.725, 599.760 438 L 599.702 458.500 602.916 458.818 C 607.113 459.234, 609 457.546, 609 453.378 C 609 448.585, 611.985 448.868, 615.369 453.981 C 618.100 458.108, 621.358 459.656, 624.928 458.523 C 628.183 457.490, 627.423 454.163, 622.500 447.897 C 620.025 444.746, 617.996 441.568, 617.992 440.834 C 617.987 440.101, 620.090 437.665, 622.665 435.422 C 628.196 430.605, 628.166 428, 622.578 428 C 619.942 428, 618.656 428.638, 617.297 430.622 C 614.336 434.941, 610.924 438.257, 610.189 437.527 C 609.810 437.151, 609.275 432.041, 609 426.171 L 608.500 415.500 604.250 415.193 C 601.293 414.979, 599.972 415.283, 599.909 416.193 M 815.434 416.311 C 815.131 417.102, 815.021 419.486, 815.191 421.608 C 815.499 425.451, 815.481 425.471, 810.707 426.666 C 803.477 428.476, 799.747 431.059, 797.250 435.985 C 794.525 441.361, 794.422 446.131, 796.914 451.617 C 799.855 458.093, 801.898 459.002, 813.473 458.985 C 825.651 458.966, 826.909 458.403, 825.221 453.734 C 824.529 451.822, 823.962 444.969, 823.912 437.929 C 823.864 431.093, 823.527 423.250, 823.162 420.500 C 822.533 415.748, 822.339 415.484, 819.243 415.186 C 817.105 414.980, 815.797 415.367, 815.434 416.311 M 237.001 427.123 C 233.901 428.359, 230 431.942, 230 433.552 C 230 434.214, 230.723 435.355, 231.607 436.088 C 232.969 437.219, 233.816 437.075, 237.172 435.143 C 240.308 433.339, 241.430 433.112, 242.566 434.055 C 245.108 436.165, 244.124 437.509, 237.865 440.482 C 228.563 444.900, 225.620 451.121, 230.272 456.530 C 232.663 459.310, 233.154 459.387, 246.500 459.078 C 253.831 458.908, 255.526 458.023, 254.598 454.852 C 254.219 453.559, 253.528 448.408, 253.061 443.407 C 252.089 432.990, 250.963 430.589, 245.790 427.917 C 241.653 425.779, 240.608 425.685, 237.001 427.123 M 321.874 428.503 C 316.874 431.107, 315.303 433.455, 317.105 435.627 C 318.669 437.511, 320.967 437.338, 324.393 435.080 C 327.709 432.894, 330 433.334, 330 436.158 C 330 437.437, 328.795 438.606, 326.478 439.574 C 324.540 440.383, 321.165 442.663, 318.978 444.639 C 315.914 447.407, 315 448.970, 315 451.442 C 315 455.744, 318.856 459.389, 323.251 459.241 C 325.038 459.181, 329.875 458.989, 334 458.816 L 341.500 458.500 341.282 455 C 339.966 433.911, 338.940 430.572, 332.802 427.398 C 329.129 425.498, 327.283 425.685, 321.874 428.503 M 480.313 427.113 C 473.909 428.945, 470.827 437.140, 474.750 441.903 C 475.712 443.071, 478.750 445.490, 481.500 447.278 C 484.250 449.066, 486.500 451.197, 486.500 452.014 C 486.500 454.349, 481.360 454.385, 477.626 452.078 L 474.293 450.018 472.439 452.068 C 467.058 458.013, 481.934 462.188, 491.280 457.355 C 498.291 453.730, 496.570 446.032, 487.618 440.979 C 481.625 437.597, 480.348 435.786, 482.625 433.896 C 483.846 432.883, 484.696 432.980, 487.117 434.410 C 488.760 435.380, 490.787 435.912, 491.622 435.592 C 493.833 434.743, 492.920 430.998, 490 428.933 C 486.575 426.511, 484.065 426.039, 480.313 427.113 M 527.500 427.487 C 520.134 430.947, 518 434.587, 518 443.688 C 518 450.336, 518.250 451.216, 521.050 454.404 C 524.584 458.429, 529.714 460.441, 534.027 459.494 C 537.993 458.623, 543.064 454.330, 542.344 452.453 C 541.712 450.808, 537.441 450.477, 536.500 452 C 535.566 453.512, 531.730 453.199, 529.165 451.403 C 527.572 450.287, 526.978 449.008, 527.193 447.153 C 527.484 444.636, 527.853 444.470, 534.398 443.908 C 541.765 443.276, 544 441.758, 544 437.386 C 544 434.402, 539.372 429.054, 535.329 427.364 C 531.384 425.716, 531.268 425.717, 527.500 427.487 M 657.500 427.384 C 654.233 428.891, 650 432.578, 650 433.917 C 650 434.378, 650.701 435.337, 651.558 436.048 C 652.852 437.122, 653.849 436.986, 657.433 435.245 C 660.631 433.691, 662.040 433.440, 662.874 434.274 C 664.905 436.305, 664.070 437.461, 658.457 440.394 C 650.198 444.710, 647.356 449.553, 649.621 455.455 C 650.743 458.379, 655.764 460.221, 660.341 459.388 C 662.628 458.971, 666.610 458.735, 669.190 458.862 C 674.386 459.119, 676.436 457.209, 674.945 453.500 C 674.502 452.400, 674.084 448.350, 674.014 444.500 C 673.944 440.650, 673.350 435.967, 672.694 434.094 C 670.524 427.903, 663.296 424.711, 657.500 427.384 M 756.025 428.250 C 750.318 431.169, 748.934 433.363, 751.304 435.731 C 752.996 437.423, 753.249 437.399, 757.103 435.182 C 760.294 433.346, 761.430 433.112, 762.566 434.055 C 765.039 436.107, 764.162 437.582, 759.042 439.980 C 750.173 444.134, 746.703 449.592, 749.497 454.993 C 751.816 459.478, 754.172 460.127, 765 459.260 L 774.500 458.500 774.329 455.500 C 773.128 434.403, 771.970 430.587, 765.802 427.398 C 762.187 425.528, 761.173 425.617, 756.025 428.250 M 855.025 428.250 C 849.340 431.158, 847.935 433.364, 850.277 435.705 C 851.933 437.362, 852.233 437.331, 856.363 435.075 C 860.926 432.582, 863 432.867, 863 435.986 C 863 437.277, 861.310 438.627, 857.526 440.359 C 852.065 442.860, 848.012 447.475, 848.004 451.203 C 847.991 456.966, 853.872 460.897, 860.253 459.391 C 862.039 458.970, 865.598 458.730, 868.163 458.858 C 870.808 458.990, 873.130 458.599, 873.527 457.956 C 874.297 456.710, 872.442 439.741, 870.876 433.702 C 870.201 431.098, 868.886 429.292, 866.696 427.956 C 862.573 425.442, 860.408 425.497, 855.025 428.250 M 381.843 427.486 C 381.482 427.850, 378.107 428.452, 374.343 428.824 L 367.500 429.500 367.822 433 C 368.173 436.810, 368.127 449.405, 367.741 455 C 367.510 458.353, 367.653 458.513, 371.126 458.803 C 376.854 459.282, 378 457.374, 378 447.363 C 378 438.190, 379.014 435, 381.928 435 C 384.592 435, 385.114 437.217, 384.919 447.696 C 384.733 457.656, 385.587 460, 389.400 460 C 390.585 460, 392.493 459.343, 393.640 458.539 C 395.568 457.189, 395.688 456.370, 395.235 447.711 C 394.709 437.651, 395.688 434, 398.913 434 C 399.926 434, 401.346 434.712, 402.068 435.582 C 403.591 437.417, 403.883 446.397, 402.641 453.222 C 401.839 457.625, 401.942 458.017, 404.169 459.031 C 405.840 459.792, 407.374 459.808, 409.278 459.084 C 411.956 458.066, 412 457.907, 411.994 449.275 C 411.988 439.183, 410.700 433.465, 407.703 430.221 C 405.806 428.169, 404.797 427.964, 397.549 428.165 C 393.122 428.287, 387.925 428.036, 386 427.606 C 384.075 427.176, 382.204 427.122, 381.843 427.486 M 701.323 428.696 C 697.403 429.459, 696.654 431.390, 698.038 437.160 C 698.910 440.792, 699.066 445.705, 698.556 453.431 C 698.154 459.519, 697.752 466.075, 697.662 468 L 697.500 471.500 703 471.500 L 708.500 471.500 708.192 466.673 C 707.809 460.683, 709.121 459, 714.172 459 C 719.900 459, 723.471 456.724, 726.028 451.442 C 728.798 445.721, 728.999 440.542, 726.654 435.342 C 724.023 429.508, 720.762 427.973, 711.346 428.136 C 707.031 428.211, 702.520 428.463, 701.323 428.696 M 528.011 434.487 C 526.391 436.439, 527.433 439, 529.846 439 C 532.272 439, 534.400 436.485, 533.643 434.513 C 532.900 432.575, 529.610 432.560, 528.011 434.487 M 806.950 434.561 C 804.846 437.095, 804.528 446.187, 806.415 449.836 C 808.305 453.490, 811.725 454.066, 814.345 451.171 C 816.554 448.731, 816.618 438.327, 814.443 435.223 C 812.637 432.644, 808.820 432.307, 806.950 434.561 M 709.571 435.571 C 708.427 436.716, 708 439.146, 708 444.515 C 708 450.887, 708.287 452.087, 710.115 453.368 C 713.303 455.601, 716.162 454.014, 717.800 449.101 C 719.469 444.094, 718.709 438.709, 715.944 435.944 C 713.590 433.590, 711.665 433.478, 709.571 435.571 M 31.451 438.078 C 31.079 438.681, 31.189 439.589, 31.696 440.096 C 32.242 440.642, 54.411 440.912, 86.059 440.759 C 132.780 440.533, 139.500 440.311, 139.500 439 C 139.500 437.689, 132.753 437.467, 85.814 437.241 C 47.717 437.058, 31.932 437.301, 31.451 438.078 M 911 437.959 C 907.216 438.514, 906.818 438.768, 908.500 439.559 C 910.949 440.711, 998.665 440.840, 1001.472 439.696 C 1006.765 437.539, 998.167 437.038, 958 437.166 C 934.625 437.240, 913.475 437.597, 911 437.959 M 240.163 446.598 C 237.902 448.182, 237.233 452.408, 239.063 453.539 C 240.646 454.517, 244 451.028, 244 448.404 C 244 445.343, 242.777 444.768, 240.163 446.598 M 661.451 446.195 C 658.223 447.662, 656.874 450.446, 658.389 452.517 C 659.418 453.924, 660.057 454.040, 661.761 453.128 C 665.965 450.878, 665.670 444.276, 661.451 446.195 M 860.272 446.267 C 857.755 447.418, 856.650 449.924, 857.584 452.359 C 858.411 454.514, 860.292 454.440, 862.345 452.171 C 864.047 450.291, 864.582 446.456, 863.250 445.683 C 862.837 445.444, 861.497 445.707, 860.272 446.267 M 326.200 447.200 C 324.695 448.705, 324.636 452.657, 326.104 453.564 C 327.712 454.558, 332.411 449.514, 331.672 447.587 C 330.953 445.713, 327.902 445.498, 326.200 447.200 M 759.571 447.571 C 757.770 449.373, 757.498 452.571, 759.063 453.539 C 760.662 454.527, 764 451.016, 764 448.345 C 764 445.627, 761.885 445.257, 759.571 447.571" stroke="none" fill="black" fill-rule="evenodd"/>
</svg>